<svg width="54" height="54" viewBox="0 0 54 54" fill="none" xmlns="http://www.w3.org/2000/svg">
<path d="M20.2417 50.0723C17.8714 51.6012 15.0467 52.2677 12.2428 51.9596C9.43888 51.651 6.82663 50.3866 4.84537 48.3786L3.11326 46.6849C2.35389 45.9081 1.92871 44.8651 1.92871 43.7789C1.92871 42.6928 2.35389 41.6494 3.11326 40.873L10.465 33.5981C11.2353 32.8411 12.2719 32.417 13.3519 32.417C14.4318 32.417 15.4685 32.8411 16.2387 33.5981C17.0154 34.3574 18.0585 34.7826 19.1448 34.7826C20.231 34.7826 21.2741 34.3574 22.0508 33.5981L33.5981 22.0508C33.9833 21.6711 34.2892 21.2187 34.498 20.7199C34.7068 20.221 34.8143 19.6855 34.8143 19.1447C34.8143 18.6039 34.7068 18.0685 34.498 17.5695C34.2892 17.0707 33.9833 16.6183 33.5981 16.2386C32.8412 15.4684 32.417 14.4317 32.417 13.3518C32.417 12.2719 32.8412 11.2352 33.5981 10.465L40.9113 3.15171C41.6881 2.39234 42.7311 1.96716 43.8173 1.96716C44.9038 1.96716 45.9468 2.39234 46.7236 3.15171L48.4173 4.88382C50.425 6.86508 51.6893 9.47733 51.9979 12.2812C52.3065 15.0852 51.64 17.9098 50.1106 20.2802C42.1429 32.0228 32.0048 42.1346 20.2417 50.0723Z" stroke="white" stroke-linecap="round" stroke-linejoin="round"/>
</svg>
