<svg width="54" height="54" viewBox="0 0 54 54" fill="none" xmlns="http://www.w3.org/2000/svg">
<path d="M39.8569 14.0555C39.3242 14.0555 38.8926 13.6238 38.8926 13.0912C38.8926 12.5587 39.3242 12.127 39.8569 12.127" stroke="white" stroke-linecap="round" stroke-linejoin="round"/>
<path d="M39.8564 14.0555C40.3891 14.0555 40.8207 13.6238 40.8207 13.0912C40.8207 12.5587 40.3891 12.127 39.8564 12.127" stroke="white" stroke-linecap="round" stroke-linejoin="round"/>
<path d="M3.31055 13.2354C3.31055 7.75427 7.75387 3.31091 13.235 3.31091H39.7005C45.1815 3.31091 49.6249 7.75427 49.6249 13.2354V39.7007C49.6249 45.1817 45.1815 49.6252 39.7005 49.6252H13.235C7.75387 49.6252 3.31055 45.1817 3.31055 39.7007V13.2354Z" stroke="white" stroke-linecap="round" stroke-linejoin="round"/>
<path d="M26.4676 36.3034C31.8997 36.3034 36.3033 31.8998 36.3033 26.4677C36.3033 21.0356 31.8997 16.632 26.4676 16.632C21.0354 16.632 16.6318 21.0356 16.6318 26.4677C16.6318 31.8998 21.0354 36.3034 26.4676 36.3034Z" stroke="white" stroke-linecap="round" stroke-linejoin="round"/>
</svg>
