<svg width="54" height="54" viewBox="0 0 54 54" fill="none" xmlns="http://www.w3.org/2000/svg">
<path d="M27.0008 3.39197C14.1373 3.39598 3.3901 14.157 3.39016 27.01C3.39018 31.6437 4.76932 36.2211 7.34338 40.0908L3.38281 50.6281L16.6452 48.2297C19.885 49.8131 23.4425 50.6065 27.0008 50.6088C39.8755 50.6177 50.6327 39.8709 50.6327 27.01C50.6327 14.1638 39.8716 3.38437 27.0008 3.39197Z" stroke="white" stroke-linecap="round" stroke-linejoin="round"/>
<path d="M28.3003 37.4113C31.4954 39.4625 34.8267 37.9685 37.1466 36.2382C38.7491 35.0431 38.6959 32.7379 37.3272 31.2808L34.6283 28.4076C33.6046 29.4314 31.6096 29.9381 30.2234 29.5162C27.244 28.6094 25.9935 27.0569 24.9801 25.4783C23.8163 23.6652 25.1306 20.9574 26.1543 19.9336L23.1461 17.1873C21.8779 16.0296 19.9516 15.8342 18.845 17.1474C16.6556 19.7455 15.294 23.6899 16.9066 26.2015C19.8014 30.7102 23.7913 34.517 28.3003 37.4113Z" stroke="white" stroke-linecap="round" stroke-linejoin="round"/>
</svg>
